<svg width="282" height="144" viewBox="0 0 282 144" fill="none" xmlns="http://www.w3.org/2000/svg" style="">
<path d="M9.29616 4.95706C6.23509 5.59479 4.58057 7.31119 3.33353 10.117C2.69377 11.5565 1.86745 13.643 2.10088 15.277C2.31263 16.7592 5.28738 17.8064 6.60151 17.857C8.94378 17.9471 10.0004 17.1318 12.1055 16.3663C14.5047 15.4939 12.768 13.4306 12.4781 17.0543C12.3357 18.835 14.3235 20.3529 16.0041 20.437C18.499 20.5617 21.7702 20.5925 22.9127 17.7996C23.5724 16.1872 23.3349 14.3417 24.0307 12.697C24.7967 10.8864 25.407 9.94584 24.7761 8.05304" stroke="white" stroke-width="3" stroke-linecap="round" class="qsaeNiCX_0"></path>
<path d="M33.548 11.149C35.8051 12.4702 44.5363 15.6014 44.3839 10.117C44.2712 6.06002 37.1201 5.99156 35.3253 8.6837C33.6922 11.1333 31.1209 18.3653 34.064 20.5516C37.0684 22.7835 45.1101 24.4312 47.4799 21.4689" stroke="white" stroke-width="3" stroke-linecap="round" class="qsaeNiCX_1"></path>
<path d="M62.9598 7.02106C59.1702 7.02106 58.3929 7.07564 56.2518 9.85904C54.7751 11.7788 60.5406 13.2173 61.9278 14.3597C63.9544 16.0286 63.3317 21.0343 61.3545 22.4723C58.5346 24.5231 53.7812 24.3343 50.5759 23.5329" stroke="white" stroke-width="3" stroke-linecap="round" class="qsaeNiCX_2"></path>
<path d="M75.3437 24.049C71.4983 23.2478 72.2477 21.3415 72.2477 17.9143C72.2477 16.2405 72.1667 14.4317 73.5377 13.213C76.2994 10.7582 77.4398 7.62215 81.765 9.88772C84.0013 11.0591 87.7103 19.142 84.6316 20.953C80.3195 23.4895 76.1294 23.533 71.2157 23.533" stroke="white" stroke-width="3" stroke-linecap="round" class="qsaeNiCX_3"></path>
<path d="M97.0155 1.86108C97.0155 8.58918 96.7665 15.376 97.0155 22.0996C97.0857 23.994 98.1902 25.8708 100.112 26.0842C103.156 26.4225 103.818 24.4706 105.787 22.5009" stroke="white" stroke-width="3" stroke-linecap="round" class="qsaeNiCX_4"></path>
<path d="M91.8556 19.405C95.2419 17.3732 98.3513 14.9732 101.144 12.181" stroke="white" stroke-width="3" stroke-linecap="round" class="qsaeNiCX_5"></path>
<path d="M116.107 13.213C115.496 14.7674 111.091 26.8645 113.642 27.7756C121.064 30.4264 122.767 22.8302 124.363 17.5703C125.702 13.1613 123.7 19.7685 123.389 20.9243C122.336 24.8354 122.057 28.9763 120.751 32.8209C118.721 38.8005 110.619 44.3599 105.271 39.0128" stroke="white" stroke-width="3" stroke-linecap="round" class="qsaeNiCX_6"></path>
<path d="M137.779 17.341C132.526 18.3416 129.007 20.566 129.007 26.3709C129.007 27.813 131.081 29.249 132.39 29.7249C135.811 30.969 135.84 30.1157 138.295 27.6609" stroke="white" stroke-width="3" stroke-linecap="round" class="qsaeNiCX_7"></path>
<path d="M150.679 5.98907C149.75 8.95203 149.859 11.4701 149.59 14.503C149.294 17.8261 148.615 20.9026 148.615 24.2783C148.615 25.0423 149.061 27.5979 148.386 28.1769C146.307 29.9587 149.829 22.6549 151.711 20.6663C151.999 20.3617 154.792 17.4033 155.094 17.513C156.982 18.1997 157.759 23.5771 157.874 25.2529C158.006 27.1558 157.978 29.017 156.871 30.6422C155.364 32.8559 155.937 34.9544 156.355 37.4649" stroke="white" stroke-width="3" stroke-linecap="round" class="qsaeNiCX_8"></path>
<path d="M97.0155 63.7807C94.4623 63.8317 90.715 64.3615 89.8489 67.3926C88.9113 70.6744 92.5251 71.4454 94.6076 72.5813C96.2394 73.4714 95.5264 76.6476 93.9196 77.0819C88.6523 78.5055 87.465 75.6455 83.5996 73.0686" stroke="white" stroke-width="3" stroke-linecap="round" class="qsaeNiCX_9"></path>
<path d="M109.915 63.7807C106.791 66.98 103.392 71.5723 104.268 76.3939C104.913 79.9406 112.035 71.1781 112.897 70.3166C113.673 69.5406 112.495 72.4871 112.495 73.5846C112.495 74.4652 112.027 76.968 113.327 77.1679C118.543 77.9705 118.171 68.832 118.171 65.8447" stroke="white" stroke-width="3" stroke-linecap="round" class="qsaeNiCX_10"></path>
<path d="M129.007 64.8127C125.915 68.2271 124.879 71.9235 124.879 76.4512C124.879 78.8745 126.285 78.7446 128.491 78.7446" stroke="white" stroke-width="3" stroke-linecap="round" class="qsaeNiCX_11"></path>
<path d="M133.135 52.4287C132.839 53.2179 132.755 54.8234 131.989 55.1234C131.226 55.4219 131.071 55.798 131.071 56.5567" stroke="white" stroke-width="3" stroke-linecap="round" class="qsaeNiCX_12"></path>
<path d="M142.423 78.7445C140.303 78.7021 138.233 78.8627 137.263 76.6806C136.487 74.9346 134.567 73.3469 134.225 71.4633C133.345 66.6254 136.189 65.8446 139.843 65.8446C146.475 65.8446 146.386 76.206 140.359 77.7126" stroke="white" stroke-width="3" stroke-linecap="round" class="qsaeNiCX_13"></path>
<path d="M145.519 67.9086C145.519 71.8487 144.859 73.9996 148.615 75.8779C151.465 77.3027 154.362 74.7059 154.807 72.0366" stroke="white" stroke-width="3" stroke-linecap="round" class="qsaeNiCX_14"></path>
<path d="M151.711 76.1646C151.602 78.4582 149.8 81.0581 151.195 83.2739C152.658 85.5974 153.541 84.4635 153.775 82.3565" stroke="white" stroke-width="3" stroke-linecap="round" class="qsaeNiCX_15"></path>
<path d="M170.287 56.5567C169.086 59.9604 167.203 63.5073 166.388 66.9913C165.834 69.3636 166.159 72.1485 166.159 74.5879C166.159 78.7039 168.108 83.0122 172.867 80.2925" stroke="white" stroke-width="3" stroke-linecap="round" class="qsaeNiCX_16"></path>
<path d="M160.999 65.8446C164.723 65.8446 168.214 65.9713 171.835 66.8766" stroke="white" stroke-width="3" stroke-linecap="round" class="qsaeNiCX_17"></path>
<path d="M190.927 52.4287C190.927 59.6854 188.863 81.3572 188.863 74.1006" stroke="white" stroke-width="3" stroke-linecap="round" class="qsaeNiCX_18"></path>
<path d="M187.831 86.4845C189.296 84.5921 190.197 85.316 189.064 86.1978C188.612 86.5489 186.188 86.4845 187.831 86.4845Z" stroke="white" stroke-width="3" stroke-linecap="round" class="qsaeNiCX_19"></path>
<path d="M206.407 51.3967C205.368 55.8746 205.736 60.027 205.317 64.526C205.047 67.4323 204.343 70.0827 204.343 73.0399C204.343 74.3413 203.311 74.8264 203.311 76.2792C203.311 77.8446 202.438 78.8647 202.795 80.2925" stroke="white" stroke-width="3" stroke-linecap="round" class="qsaeNiCX_20"></path>
<path d="M201.247 88.5485C203.581 85.6313 201.396 88.5485 202.279 88.5485" stroke="white" stroke-width="3" stroke-linecap="round" class="qsaeNiCX_21"></path>
<path d="M219.823 50.3647C219.573 57.8516 218.641 65.2862 216.956 72.5526C216.329 75.2583 216.596 79.9075 214.663 81.8405" stroke="white" stroke-width="3" stroke-linecap="round" class="qsaeNiCX_22"></path>
<path d="M213.631 89.5805C214.602 84.4028 215.448 88.6102 213.631 89.0645" stroke="white" stroke-width="3" stroke-linecap="round" class="qsaeNiCX_23"></path>
<path d="M163.848 108.398C163.848 111.159 163.848 113.921 163.848 116.682C163.848 119.503 164.779 122.025 165.219 124.771C165.64 127.406 165.258 130.397 165.258 133.075" stroke="white" stroke-width="3" stroke-linecap="round" class="qsaeNiCX_24"></path>
<path d="M164.553 121.794H172.308" stroke="white" stroke-width="3" stroke-linecap="round" class="qsaeNiCX_25"></path>
<path d="M175.481 111.218C175.481 118.504 175.129 140.362 175.129 133.075" stroke="white" stroke-width="3" stroke-linecap="round" class="qsaeNiCX_26"></path>
<path d="M184.295 123.909C183.497 126.352 182.44 128.697 184.295 130.783C186.407 133.16 189.23 129.414 189.23 127.434" stroke="white" stroke-width="3" stroke-linecap="round" class="qsaeNiCX_27"></path>
<path d="M197.691 115.448C197.691 121.228 197.211 126.342 195.576 131.861C194.718 134.757 195.821 131.174 196.281 130.255C197.218 128.38 198.383 127.994 199.806 126.729C201.418 125.297 202.969 126.68 204.037 128.061C205.074 129.403 204.457 130.936 203.606 132.291C202.514 134.029 199.897 133.953 198.122 134.211C195.842 134.542 196.088 134.055 195.576 131.665" stroke="white" stroke-width="3" stroke-linecap="round" class="qsaeNiCX_28"></path>
<path d="M211.087 128.139C212.984 129.088 216.65 132.503 216.728 128.296C216.777 125.624 213.379 123.928 211.44 126.083C209.294 128.467 208.609 132.037 210.01 134.955C211.139 137.307 216.765 136.248 218.843 136.248" stroke="white" stroke-width="3" stroke-linecap="round" class="qsaeNiCX_29"></path>
<path d="M224.836 126.024C224.789 128.862 224.205 131.661 224.131 134.485C224.053 137.447 223.768 133.754 224.131 132.448C224.567 130.879 225.585 129.425 226.99 128.531C229.188 127.132 231.444 127.037 233.649 128.139" stroke="white" stroke-width="3" stroke-linecap="round" class="qsaeNiCX_30"></path>
<path d="M243.873 111.923C242.244 119.886 241.54 127.981 239.447 135.817C238.763 138.374 238.164 139.335 240.7 139.969C242.579 140.439 243.061 140.784 243.52 138.715" stroke="white" stroke-width="3" stroke-linecap="round" class="qsaeNiCX_31"></path>
<path d="M236.117 122.499C237.881 121.827 239.544 121.089 241.444 121.089C243.385 121.089 245.146 120.384 247.046 120.384" stroke="white" stroke-width="3" stroke-linecap="round" class="qsaeNiCX_32"></path>
<path d="M265.73 140.831C261.215 139.172 257.493 135.623 256.936 130.607C256.733 128.779 256.212 126.79 256.212 124.967C256.212 122.306 256.848 120.233 257.778 117.72C258.349 116.179 260.87 114.132 262.557 114.038C265.09 113.897 265.582 114.79 267.101 116.525C268.266 117.857 268.198 119.366 268.198 121.01C268.198 123.855 268.904 120.241 269.255 119.326C269.607 118.412 269.743 117.037 270.47 116.31C271.012 115.767 271.935 115.712 272.428 115.096C273.016 114.361 276.497 114.492 277.207 115.096C280.738 118.097 280.184 121.687 280.184 126.005C280.184 127.264 278.91 129.487 278.225 130.607C277.207 132.273 275.814 134.22 274.465 135.621C272.781 137.37 271.074 141.888 268.198 141.888" stroke="white" stroke-width="3" stroke-linecap="round" class="qsaeNiCX_33"></path>
<style data-made-with="vivus-instant">.qsaeNiCX_0{stroke-dasharray:53 55;stroke-dashoffset:54;animation:qsaeNiCX_draw 381ms ease-in-out 0ms forwards;}.qsaeNiCX_1{stroke-dasharray:52 54;stroke-dashoffset:53;animation:qsaeNiCX_draw 374ms ease-in-out 381ms forwards;}.qsaeNiCX_2{stroke-dasharray:36 38;stroke-dashoffset:37;animation:qsaeNiCX_draw 261ms ease-in-out 756ms forwards;}.qsaeNiCX_3{stroke-dasharray:50 52;stroke-dashoffset:51;animation:qsaeNiCX_draw 360ms ease-in-out 1017ms forwards;}.qsaeNiCX_4{stroke-dasharray:33 35;stroke-dashoffset:34;animation:qsaeNiCX_draw 240ms ease-in-out 1378ms forwards;}.qsaeNiCX_5{stroke-dasharray:12 14;stroke-dashoffset:13;animation:qsaeNiCX_draw 91ms ease-in-out 1618ms forwards;}.qsaeNiCX_6{stroke-dasharray:72 74;stroke-dashoffset:73;animation:qsaeNiCX_draw 516ms ease-in-out 1710ms forwards;}.qsaeNiCX_7{stroke-dasharray:26 28;stroke-dashoffset:27;animation:qsaeNiCX_draw 190ms ease-in-out 2226ms forwards;}.qsaeNiCX_8{stroke-dasharray:58 60;stroke-dashoffset:59;animation:qsaeNiCX_draw 417ms ease-in-out 2417ms forwards;}.qsaeNiCX_9{stroke-dasharray:34 36;stroke-dashoffset:35;animation:qsaeNiCX_draw 247ms ease-in-out 2834ms forwards;}.qsaeNiCX_10{stroke-dasharray:48 50;stroke-dashoffset:49;animation:qsaeNiCX_draw 346ms ease-in-out 3081ms forwards;}.qsaeNiCX_11{stroke-dasharray:18 20;stroke-dashoffset:19;animation:qsaeNiCX_draw 134ms ease-in-out 3428ms forwards;}.qsaeNiCX_12{stroke-dasharray:5 7;stroke-dashoffset:6;animation:qsaeNiCX_draw 42ms ease-in-out 3562ms forwards;}.qsaeNiCX_13{stroke-dasharray:39 41;stroke-dashoffset:40;animation:qsaeNiCX_draw 282ms ease-in-out 3605ms forwards;}.qsaeNiCX_14{stroke-dasharray:18 20;stroke-dashoffset:19;animation:qsaeNiCX_draw 134ms ease-in-out 3887ms forwards;}.qsaeNiCX_15{stroke-dasharray:12 14;stroke-dashoffset:13;animation:qsaeNiCX_draw 91ms ease-in-out 4022ms forwards;}.qsaeNiCX_16{stroke-dasharray:31 33;stroke-dashoffset:32;animation:qsaeNiCX_draw 226ms ease-in-out 4114ms forwards;}.qsaeNiCX_17{stroke-dasharray:11 13;stroke-dashoffset:12;animation:qsaeNiCX_draw 84ms ease-in-out 4340ms forwards;}.qsaeNiCX_18{stroke-dasharray:25 27;stroke-dashoffset:26;animation:qsaeNiCX_draw 183ms ease-in-out 4425ms forwards;}.qsaeNiCX_19{stroke-dasharray:6 8;stroke-dashoffset:7;animation:qsaeNiCX_draw 49ms ease-in-out 4608ms forwards;}.qsaeNiCX_20{stroke-dasharray:30 32;stroke-dashoffset:31;animation:qsaeNiCX_draw 219ms ease-in-out 4658ms forwards;}.qsaeNiCX_21{stroke-dasharray:4 6;stroke-dashoffset:5;animation:qsaeNiCX_draw 35ms ease-in-out 4877ms forwards;}.qsaeNiCX_22{stroke-dasharray:33 35;stroke-dashoffset:34;animation:qsaeNiCX_draw 240ms ease-in-out 4912ms forwards;}.qsaeNiCX_23{stroke-dasharray:6 8;stroke-dashoffset:7;animation:qsaeNiCX_draw 49ms ease-in-out 5153ms forwards;}.qsaeNiCX_24{stroke-dasharray:25 27;stroke-dashoffset:26;animation:qsaeNiCX_draw 183ms ease-in-out 5202ms forwards;}.qsaeNiCX_25{stroke-dasharray:8 10;stroke-dashoffset:9;animation:qsaeNiCX_draw 63ms ease-in-out 5386ms forwards;}.qsaeNiCX_26{stroke-dasharray:25 27;stroke-dashoffset:26;animation:qsaeNiCX_draw 183ms ease-in-out 5450ms forwards;}.qsaeNiCX_27{stroke-dasharray:15 17;stroke-dashoffset:16;animation:qsaeNiCX_draw 113ms ease-in-out 5633ms forwards;}.qsaeNiCX_28{stroke-dasharray:46 48;stroke-dashoffset:47;animation:qsaeNiCX_draw 332ms ease-in-out 5746ms forwards;}.qsaeNiCX_29{stroke-dasharray:34 36;stroke-dashoffset:35;animation:qsaeNiCX_draw 247ms ease-in-out 6079ms forwards;}.qsaeNiCX_30{stroke-dasharray:25 27;stroke-dashoffset:26;animation:qsaeNiCX_draw 183ms ease-in-out 6326ms forwards;}.qsaeNiCX_31{stroke-dasharray:34 36;stroke-dashoffset:35;animation:qsaeNiCX_draw 247ms ease-in-out 6510ms forwards;}.qsaeNiCX_32{stroke-dasharray:12 14;stroke-dashoffset:13;animation:qsaeNiCX_draw 91ms ease-in-out 6757ms forwards;}.qsaeNiCX_33{stroke-dasharray:91 93;stroke-dashoffset:92;animation:qsaeNiCX_draw 650ms ease-in-out 6849ms forwards;}@keyframes qsaeNiCX_draw{100%{stroke-dashoffset:0;}}@keyframes qsaeNiCX_fade{0%{stroke-opacity:1;}96.58119658119658%{stroke-opacity:1;}100%{stroke-opacity:0;}}</style></svg>
